# xmcd
#
# Track frame offsets:
#	150
#	10295
#	26581
#	44558
#	57610
#	70896
#	81512
#	93812
#	107742
#	120840
#	142540
#	153584
#	174800
#	185132
#
# Disc length: 2614 seconds
#
# Revision: 1
# Processed by: cddbd v1.5.1PL0 Copyright (c) Steve Scherf et al.
# Submitted via: audiograbber 1.83.01
#
DISCID=b30a340e
DTITLE=Curtis Blackwell and The Dixie Bluegrass Boys - Where Did The Good Times G
DTITLE=o
DYEAR=1900
DGENRE=
TTITLE0=Boogie Grass Band
TTITLE1=Jerusalem Ridge
TTITLE2=When I Met Jesus
TTITLE3=This Old Highway
TTITLE4=Tree Of Life
TTITLE5=The Butterbean Song
TTITLE6=Angelina Baker
TTITLE7=Letter From My Darlin'
TTITLE8=Log Cabin In The Lane
TTITLE9=Lonesome River
TTITLE10=Broken Hearted and Blue
TTITLE11=The Old Rugged Cross
TTITLE12=Mountain Sweetheart
TTITLE13=Where Did The Good Times Go
EXTD=
EXTT0=
EXTT1=
EXTT2=
EXTT3=
EXTT4=
EXTT5=
EXTT6=
EXTT7=
EXTT8=
EXTT9=
EXTT10=
EXTT11=
EXTT12=
EXTT13=
PLAYORDER=
